<?xml version="1.0" encoding="UTF-8"?>
<svg id="Layer_1" xmlns="http://www.w3.org/2000/svg" version="1.1" viewBox="0 0 2654.66 401.45">
  <!-- Generator: Adobe Illustrator 29.6.1, SVG Export Plug-In . SVG Version: 2.1.1 Build 9)  -->
  <defs>
    <style>
      .st0 {
        fill: #fff;
      }
    </style>
  </defs>
  <g>
    <g>
      <path class="st0" d="M689.96,262.11c0,38.73-23.85,80.33-79.65,80.33h-107.9V61.5h100.2c45.15,0,74.14,30.17,74.14,72.58,0,20.8-7.34,48.93-34.87,58.31,32.3,6.12,48.08,37.92,48.08,69.73ZM599.27,112.51h-45.84v59.11h45.84c15.51,0,25.02-11.35,25.02-29.75,0-16.44-7.75-29.36-25.02-29.36ZM602.69,291.42c22.87,0,34.12-16.41,34.12-34.39,0-16.81-10.2-34.39-33.42-34.39h-49.96v68.78h49.26Z"/>
      <path class="st0" d="M766.49,291.42h95.79v51.01h-146.81V61.5h51.02v229.92Z"/>
      <path class="st0" d="M1077.54,342.44l-22.71-67.28h-90.05l-22.68,67.28h-54.32l94.32-280.94h55.06l93.96,280.94h-53.59ZM981.17,225.82h57.09l-28.63-85.02-28.47,85.02Z"/>
      <path class="st0" d="M1131.12,201.76c0-79.1,56.89-145.16,128.46-145.16,42.94,0,81.16,22.08,103.91,57.56l-39.68,32.15c-14.31-22.43-35.6-36.29-62.39-36.29-45.88,0-79.28,41.59-79.28,91.74s33.03,92.15,78.91,92.15c27.16,0,47.83-14.65,62.14-37.08l39.52,32.19c-22.75,35.47-60.19,58.31-103.14,58.31-71.57,0-128.46-65.65-128.46-145.56Z"/>
      <path class="st0" d="M1571.98,342.44h-62.15l-70.81-112.32v112.32h-51.02V61.5h51.02v111.93l70.47-111.93h61.29l-87.72,139.45,88.92,141.49Z"/>
    </g>
    <path class="st0" d="M1743.82,58.94h-98.01v286.06h98.01c69.02,0,115.39-57.23,115.39-142.41s-46.38-143.64-115.39-143.64ZM1673.18,87.38h70.64c53.47,0,88.01,45.22,88.01,115.2s-34.54,113.97-88.01,113.97h-70.64V87.38Z"/>
    <path class="st0" d="M2054.15,248.6c0,49.78-38.63,73.95-71.02,73.95s-71.02-24.17-71.02-73.95V58.94h-27.38v189.66c0,58.71,44.82,101.32,98.4,101.32s98.4-42.61,98.4-101.32V58.94h-27.37v189.66Z"/>
    <path class="st0" d="M2236.47,82.45c26.9,0,53.04,12.39,71.74,34l1.03,1.19,19.49-18.89-.88-1.06c-23.07-27.76-56.37-43.68-91.38-43.68-71.38,0-129.45,66.65-129.45,148.57s58.07,147.34,129.45,147.34c34.87,0,68.18-15.77,91.38-43.26l.88-1.05-19.48-19.34-1.04,1.2c-18.98,21.92-44.46,34-71.74,34-56.28,0-102.07-53.34-102.07-118.9s45.79-120.13,102.07-120.13Z"/>
    <polygon class="st0" points="2401.53 202.73 2506.82 56.31 2472.84 56.31 2380.03 185.24 2380.03 56.31 2352.66 56.31 2352.66 342.36 2380.01 342.02 2380.01 218.04 2469.47 342.36 2501.87 342.36 2401.53 202.73"/>
    <path class="st0" d="M2580.66,85.92c0,16.31-12.96,29.52-29.27,29.52s-29.19-13.21-29.19-29.52,12.88-29.61,29.19-29.61,29.27,13.3,29.27,29.61ZM2575.65,85.92c0-13.55-10.71-24.59-24.26-24.59s-24.17,11.04-24.17,24.59,10.62,24.42,24.17,24.42,24.26-10.87,24.26-24.42ZM2555.91,90.18l7.44,10.62h-6.02l-7.28-10.2h-3.01v10.2h-5.35v-29.02h11.21c6.44,0,9.45,4.35,9.45,9.2,0,5.19-1.92,8.11-6.44,9.2ZM2547.04,76.8v9.03h5.6c3.18,0,4.52-2.43,4.52-4.52s-1.34-4.52-4.52-4.52h-5.6Z"/>
  </g>
  <path class="st0" d="M200.98,0C89.98,0,0,89.77,0,200.52c0,20.43,3.11,40.12,8.8,58.68.43,1.4.87,2.79,1.32,4.17,0,0,23.02,85.62,118.49,124.26,24.99,10.12,48.85,13.83,70.46,13.83,59.47,0,101.84-28.11,103.64-28.11.04,0,.06.02.06.05,2.1-1.23,4.16-2.51,6.2-3.83,3.96-2.55,7.82-5.25,11.59-8.05,49.35-36.53,81.4-94.99,81.4-161C401.97,89.77,311.98,0,200.98,0ZM298.12,361.57c-.75.32-1.36.62-1.79.84-.79.4-1.68.87-2.81,1.48-5.6,2.99-17.26,9.2-33.64,14.75-20.21,6.84-40.69,10.3-60.86,10.3-22.4,0-44.47-4.33-65.58-12.88-20.24-8.19-38.63-19.3-54.66-33.01-12.88-11.02-24.32-23.76-33.98-37.87-16.35-23.86-22.17-43.8-22.44-44.76l-.11-.41-.19-.57c-.32-.96-.62-1.92-.92-2.88,4.83-1.06,9.67-2.12,14.52-3.08.42-.08.83-.16,1.25-.24,2.81-.55,5.63-1.06,8.46-1.52.41-.07.82-.14,1.23-.21,2.97-.47,5.95-.86,8.96-1.19.67-.07,1.34-.13,2.01-.2,3.1-.3,6.22-.54,9.38-.63.04,0,.07,0,.11,0,27.2-.8,54.43,2.64,80.93,8.65.87.2,1.71.32,2.59.22.09-.01.19-.04.28-.05.99-.13,1.98-.36,2.91-.74.03-.01.06-.04.1-.05.98-.42,1.88-.98,2.65-1.72,1.57-1.53,2.3-3.66,2.22-5.83-.04-1.04-.28-2.02-.63-2.94-.17-.38-.35-.76-.57-1.1-.05-.1-.08-.2-.14-.3,0,0-18.27-26.01-23.68-33.65-4.15-5.95-7.39-12.31-9.78-18.91-2.61-6.29-4.54-12.98-5.64-20-.7-4.47-1.05-8.91-1.06-13.3-.16-42.42,30.65-79.76,73.85-86.53,4.99-.78,9.94-1.12,14.83-1.05,5.86.08,11.62.76,17.2,1.98,4.65,1.01,9.19,2.4,13.57,4.13,1.71.59,3.37,1.29,5.02,2.03,3.35,1.51,6.59,3.3,9.63,5.44.1.07.2.13.3.2.13.09.27.17.4.26.07.05.14.09.2.13.05.04.1.07.15.11.12.09.24.18.37.26.2.13.4.27.6.4.3.2.59.4.88.6.64.44,1.26.92,1.89,1.38.45.32.9.64,1.34.97,1.14.87,2.26,1.77,3.36,2.69.24.2.49.4.72.6,1.16,1,2.29,2.02,3.4,3.08.47.45.93.92,1.39,1.38.71.7,1.41,1.41,2.1,2.14.49.52.97,1.06,1.44,1.59.65.72,1.28,1.45,1.9,2.2.45.53.89,1.07,1.32,1.61.46.58.91,1.18,1.35,1.78.19.26.39.51.58.77.35.47.71.94,1.05,1.42,8.03,11.38,16.6,19.18,27.65,27.35,0,0,0,0,0,0,.85.63,1.73,1.21,2.6,1.81,2.59,1.81,5.23,3.55,7.93,5.19,3.37,2.06,6.81,3.99,10.31,5.83,1.75.92,3.51,1.82,5.28,2.69,4.43,2.19,8.93,4.26,13.45,6.24,4.52,1.99,9.06,3.9,13.57,5.79,2.42,1.07,4.38,2.45,5.79,3.97.47.51.89,1.03,1.24,1.57.13.19.21.39.32.58.14.24.29.48.4.73.09.19.08.38.15.57.26.7.51,1.41.57,2.12.04.45.03.9-.02,1.34-.05.44-.15.88-.29,1.32-.42,1.3-1.25,2.54-2.51,3.64-1.26,1.11-2.96,2.08-5.12,2.83-2.58.77-5.21,1.32-7.87,1.76-2.11.35-4.24.64-6.38.83-4.03.35-8.11.46-12.17.48-4.06.02-8.1-.06-12.07-.08-.69-.01-1.57-.02-2.62-.04-1.04-.01-2.25-.03-3.59-.04-.53,0-1.09-.01-1.66-.02-1.15-.01-2.37-.02-3.64-.03-.64,0-1.29-.01-1.95-.01-1.33,0-2.71-.02-4.11-.03-6.16-.04-12.93-.06-18.88-.05-2.38,0-4.64.01-6.67.03-1.02,0-1.98.02-2.87.03-.02,0-.03,0-.05,0-1,.01-1.93.03-2.75.05-1.25.03-2.27.06-3,.1-.49.03-.84.06-1.06.09-1.17.18-2.3.48-3.36.88s-2.08.9-3.03,1.49c-1.42.88-2.69,1.96-3.79,3.19-.73.82-1.38,1.71-1.94,2.66-.28.47-.54.96-.77,1.46-.47,1-.84,2.04-1.11,3.12-.14.54-.25,1.09-.33,1.65-.08.56-.14,1.12-.16,1.69-.03.57-.02,1.14,0,1.72.03.58.09,1.16.18,1.75.08.54.2,1.07.33,1.59.41,1.55,1.03,3,1.81,4.34.09.19.15.39.25.58,0,0,.64,1.31,1.76,3.6.45.92.97,1.99,1.56,3.2.59,1.21,1.24,2.56,1.95,4.02.71,1.46,1.48,3.04,2.29,4.71.41.84.82,1.69,1.25,2.58,8.52,17.61,20.99,43.62,26.83,57.19,2.37,5.51,6.56,15.47,10.32,24.97.76,1.92,1.49,3.8,2.2,5.64,2.79,7.27,5.02,13.63,5.54,16.55,1.39,6.14,2.19,12.51,2.29,19.05-4.17,2.99-8.14,5.63-12.01,7.97Z"/>
</svg>