<?xml version="1.0" encoding="UTF-8"?><svg id="Layer_1" xmlns="http://www.w3.org/2000/svg" viewBox="0 0 32 32"><defs><style>.cls-1{fill:#9a73b8;}.cls-1,.cls-2{stroke-width:0px;}.cls-2{fill:#000;}</style></defs><path class="cls-1" d="M31.87,16.03C31.87,7.31,24.8.24,16.08.24S.29,7.31.29,16.03c0,1.73.28,3.4.8,4.96.35-.08.71-.16,1.06-.24,0,0,0,0,0,0,.02,0,.03,0,.05,0,.19-.04.38-.08.57-.12.06-.01.11-.02.17-.03.22-.04.44-.08.66-.11.02,0,.04,0,.06,0,.2-.03.4-.05.6-.08.06,0,.12-.01.18-.02.22-.02.44-.04.67-.04,0,0,0,0,0,0,.26,0,.51,0,.77,0,.09,0,.17,0,.26,0,.17,0,.34,0,.51.01.1,0,.21.01.31.02.15,0,.3.02.46.03.11,0,.22.02.33.03.14.01.29.03.43.04.11.01.23.03.34.04.14.02.28.03.42.05.12.02.23.03.35.05.14.02.27.04.41.06.12.02.23.04.35.06.13.02.27.05.4.08.12.02.23.04.35.07.04,0,.08.01.11.02.04,0,.08.02.12.03.13.03.27.06.4.09.13.02.25.02.37,0,.03,0,.06-.02.1-.03,0,0,.01,0,.02,0,.03-.01.06-.03.09-.05.04-.02.08-.05.11-.09.12-.12.18-.29.17-.46,0-.08-.02-.16-.05-.23-.06-.12-.13-.22-.21-.33-.13-.18-.25-.36-.38-.54-.16-.23-.33-.46-.49-.7-.16-.23-.32-.45-.48-.68-.12-.16-.23-.33-.35-.49-.32-.47-.58-.96-.77-1.48-.2-.49-.35-1.02-.44-1.56-.05-.35-.08-.7-.08-1.04-.01-3.32,2.4-6.24,5.78-6.77.39-.06.78-.09,1.16-.08,0,0,0,0,0,0,0,0,0,0,0,0,.46,0,.91.06,1.35.15.36.08.72.19,1.06.32.41.14.79.33,1.15.58,0,0,.02.01.02.02.02.01.03.02.05.03.01,0,.03.02.04.03.01,0,.03.02.04.03,0,0,0,0,0,0,.02.01.04.03.07.05.05.03.1.07.15.11.03.03.07.05.1.08.02.02.04.04.07.05,0,0,.01.01.02.02.51.4.96.88,1.34,1.42.29.41.58.82.93,1.17.94.95,2.13,1.62,3.31,2.2.69.34,1.41.65,2.11.94,0,0,0,0,.01,0,.05.02.09.05.14.07.02,0,.03.02.05.03.02.01.04.03.06.04.04.03.08.06.12.1.07.06.13.12.17.19.02.03.04.07.06.1,0,0,0,.02,0,.03.02.05.04.09.04.14,0,0,0,.01,0,.02,0,0,0,.01,0,.02,0,.03,0,.06,0,.09,0,0,0,.01,0,.02,0,0,0,0,0,0,0,.03-.01.07-.02.1,0,0,0,0,0,0-.01.04-.04.09-.06.13-.01.02-.03.04-.05.06-.02.02-.03.04-.05.06-.02.02-.05.04-.07.07-.02.02-.05.03-.07.05-.04.02-.07.04-.11.06-.05.03-.11.05-.17.08,0,0,0,0-.01,0-.36.11-.74.17-1.12.2-.01,0-.02,0-.04,0-1.08.09-2.17.07-3.25.05-.55-.01-1.1-.03-1.65-.03-.03,0-.07,0-.1,0-.17,0-.33,0-.46,0-.08,0-.15,0-.22,0-.09,0-.17,0-.23,0-.07,0-.14.02-.21.04-.03,0-.05.01-.08.02-.03.01-.07.02-.1.04-.06.03-.13.06-.19.09,0,0,0,0-.01,0-.05.03-.11.07-.15.11,0,0,0,0,0,0-.04.04-.09.08-.13.12,0,0-.01.01-.02.02-.06.06-.11.13-.15.2,0,.01-.01.02-.02.03-.03.05-.05.1-.06.14-.02.04-.03.08-.04.11-.13.44.03.87.23,1.28.4.81,2.06,4.22,2.7,5.72.37.86,1.31,3.12,1.41,3.69.12.55.19,1.12.18,1.7,0,.32-.03.63-.08.94,4.66-2.75,7.79-7.81,7.79-13.61Z"/><path class="cls-2" d="M28.47,14.4s0-.01,0-.02c0-.05-.02-.1-.04-.14,0,0,0-.02,0-.03-.02-.03-.03-.07-.06-.1-.04-.07-.1-.13-.17-.19-.04-.04-.08-.07-.12-.1-.02-.01-.04-.03-.06-.04-.01,0-.03-.02-.05-.03-.04-.03-.09-.05-.14-.07,0,0,0,0-.01,0-.71-.3-1.42-.6-2.11-.94-1.18-.59-2.37-1.25-3.31-2.2-.35-.36-.64-.77-.93-1.17-.37-.54-.83-1.01-1.34-1.42,0,0-.01-.01-.02-.02-.02-.02-.04-.04-.07-.05-.03-.03-.07-.05-.1-.08-.05-.04-.1-.07-.15-.11-.02-.02-.04-.03-.07-.05,0,0,0,0,0,0-.01,0-.03-.02-.04-.03-.01,0-.03-.02-.04-.03-.02-.01-.03-.02-.05-.03,0,0-.02-.01-.02-.02-.35-.25-.74-.44-1.15-.58-.34-.14-.7-.24-1.06-.32-.44-.1-.89-.15-1.35-.15,0,0,0,0,0,0,0,0,0,0,0,0-.38,0-.77.02-1.16.08-3.38.53-5.79,3.45-5.78,6.77,0,.34.03.69.08,1.04.09.55.24,1.07.44,1.56.19.52.44,1.01.77,1.48.12.16.23.33.35.49.16.23.32.45.48.68.16.23.33.46.49.7.13.18.25.36.38.54.08.11.15.21.21.33.03.07.05.15.05.23,0,.17-.05.34-.17.46-.04.04-.07.06-.11.09-.03.02-.06.03-.09.05,0,0-.01,0-.02,0-.03.01-.06.02-.1.03-.12.03-.24.02-.37,0-.13-.03-.27-.06-.4-.09-.04,0-.08-.02-.12-.03-.04,0-.08-.01-.11-.02-.12-.02-.23-.05-.35-.07-.13-.03-.27-.05-.4-.08-.12-.02-.23-.04-.35-.06-.14-.02-.27-.04-.41-.06-.12-.02-.23-.03-.35-.05-.14-.02-.28-.04-.42-.05-.11-.01-.23-.03-.34-.04-.14-.02-.29-.03-.43-.04-.11,0-.22-.02-.33-.03-.15-.01-.3-.02-.46-.03-.1,0-.21-.01-.31-.02-.17,0-.34-.01-.51-.01-.09,0-.17,0-.26,0-.26,0-.51,0-.77,0,0,0,0,0,0,0-.23,0-.45.02-.67.04-.06,0-.12.01-.18.02-.2.02-.4.05-.6.08-.02,0-.04,0-.06,0-.22.03-.44.07-.66.11-.06.01-.11.02-.17.03-.19.04-.38.08-.57.12-.02,0-.03,0-.05,0,0,0,0,0,0,0-.35.07-.71.16-1.06.24,0,0,0,0,0,0,.04.12.08.23.12.34.02.05.04.11.06.16.17.46.36.91.57,1.35.01.03.03.05.04.08.1.2.2.39.3.59.01.03.03.05.04.08.36.66.76,1.29,1.21,1.88,0,0,0,0,0,0,.15.19.3.39.45.57.01.01.02.03.03.04.48.57.99,1.12,1.54,1.62,0,0,.02.02.03.02.17.15.34.3.52.45.02.02.05.04.07.06.18.14.35.28.53.42.01,0,.02.02.04.03.39.29.8.57,1.23.83.03.02.05.03.08.05.18.11.36.21.55.31.04.02.08.04.12.07.18.1.37.19.56.29.03.01.06.03.09.04.44.21.9.41,1.36.58.03.01.06.02.09.03.2.07.4.14.61.21.04.01.08.03.13.04.21.06.42.13.64.18.02,0,.04.01.07.02.5.13,1,.23,1.52.31,0,0,0,0,.01,0,.25.04.5.07.76.1.02,0,.03,0,.05,0,.53.05,1.06.08,1.6.08.14,0,.28-.01.42-.01.15,0,.31,0,.46-.02.18,0,.35-.02.53-.04.13-.01.27-.03.4-.04.18-.02.35-.04.53-.07.13-.02.26-.04.39-.07.3-.05.6-.11.89-.18.13-.03.26-.06.4-.1.16-.04.32-.09.48-.14.13-.04.27-.08.4-.13.15-.05.31-.1.46-.15.16-.06.33-.12.49-.19.21-.08.42-.17.63-.27.15-.07.31-.14.46-.21.13-.07.26-.13.4-.2.14-.07.28-.15.41-.23.08-.05.17-.09.25-.14,0,0,0,0,0,0,.04-.31.07-.62.08-.94,0-.59-.06-1.16-.18-1.7-.1-.57-1.04-2.83-1.41-3.69-.64-1.49-2.31-4.91-2.7-5.72-.2-.42-.35-.84-.23-1.28.01-.04.03-.08.04-.11.02-.05.04-.09.06-.14,0-.01.01-.02.02-.03.04-.07.09-.14.15-.2,0,0,.01-.01.02-.02.04-.04.08-.08.13-.12,0,0,0,0,0,0,.05-.04.1-.08.15-.11,0,0,0,0,.01,0,.06-.04.12-.06.19-.09.03-.01.07-.02.1-.04.03,0,.05-.01.08-.02.07-.02.14-.03.21-.04.06,0,.13,0,.23,0,.07,0,.14,0,.22,0,.14,0,.29,0,.46,0,.03,0,.07,0,.1,0,.55,0,1.1.02,1.65.03,1.08.03,2.17.05,3.25-.05.01,0,.02,0,.04,0,.38-.03.75-.09,1.12-.2,0,0,0,0,.01,0,.06-.02.12-.05.17-.08.04-.02.07-.04.11-.06.02-.02.05-.03.07-.05.03-.02.05-.04.07-.07.02-.02.03-.04.05-.06.02-.02.03-.04.05-.06.03-.04.05-.08.06-.13,0,0,0,0,0,0,.01-.03.02-.07.02-.1,0,0,0,0,0,0,0,0,0-.01,0-.02,0-.03,0-.06,0-.09,0,0,0-.01,0-.02Z"/></svg>