<?xml version="1.0" encoding="UTF-8"?>
<svg id="Layer_1" xmlns="http://www.w3.org/2000/svg" xmlns:xlink="http://www.w3.org/1999/xlink" version="1.1" viewBox="0 0 1060.66 160.58">
  <!-- Generator: Adobe Illustrator 29.6.1, SVG Export Plug-In . SVG Version: 2.1.1 Build 9)  -->
  <defs>
    <style>
      .st0 {
        fill: none;
      }

      .st1 {
        clip-path: url(#clippath-1);
      }

      .st2 {
        clip-path: url(#clippath);
      }
    </style>
    <clipPath id="clippath">
      <rect class="st0" x="0" y="0" width="1032.66" height="160.58"/>
    </clipPath>
    <clipPath id="clippath-1">
      <rect class="st0" x="0" y="0" width="1032.67" height="160.58"/>
    </clipPath>
  </defs>
  <g id="Black_Logo">
    <g class="st2">
      <g class="st1">
        <path d="M275.98,104.84c0,15.49-9.54,32.13-31.86,32.13h-43.16V24.6h40.08c18.06,0,29.66,12.07,29.66,29.03,0,8.32-2.94,19.57-13.95,23.32,12.92,2.45,19.23,15.17,19.23,27.89M239.71,45.01h-18.34v23.64h18.34c6.2,0,10.01-4.54,10.01-11.9,0-6.58-3.1-11.74-10.01-11.74M241.07,116.57c9.15,0,13.65-6.57,13.65-13.76,0-6.72-4.08-13.76-13.37-13.76h-19.98v27.51h19.7Z"/>
        <polygon points="306.6 116.57 344.91 116.57 344.91 136.97 286.19 136.97 286.19 24.6 306.6 24.6 306.6 116.57"/>
        <path d="M431.01,136.97l-9.08-26.91h-36.02l-9.07,26.91h-21.73l37.73-112.37h22.02l37.58,112.37h-21.43ZM392.47,90.33h22.84l-11.45-34.01-11.39,34.01Z"/>
        <path d="M452.45,80.71c0-31.64,22.76-58.06,51.38-58.06,17.18,0,32.46,8.83,41.56,23.02l-15.87,12.86c-5.73-8.97-14.24-14.52-24.96-14.52-18.35,0-31.71,16.64-31.71,36.7s13.21,36.86,31.56,36.86c10.86,0,19.13-5.86,24.86-14.83l15.81,12.87c-9.1,14.19-24.08,23.32-41.25,23.32-28.63,0-51.38-26.26-51.38-58.23"/>
        <polygon points="628.79 136.97 603.93 136.97 575.6 92.05 575.6 136.97 555.2 136.97 555.2 24.6 575.6 24.6 575.6 69.37 603.79 24.6 628.31 24.6 593.22 80.38 628.79 136.97"/>
        <path d="M697.93,23.58h-39.2v114.42h39.2c27.61,0,46.16-22.89,46.16-56.97s-18.55-57.46-46.16-57.46M669.67,34.95h28.25c21.39,0,35.2,18.09,35.2,46.08s-13.82,45.59-35.2,45.59h-28.25V34.95Z"/>
        <path d="M822.06,99.44c0,19.91-15.45,29.58-28.41,29.58s-28.41-9.67-28.41-29.58V23.58h-10.95v75.86c0,23.48,17.93,40.53,39.36,40.53s39.36-17.05,39.36-40.53V23.58h-10.95v75.86Z"/>
        <path d="M894.99,32.98c10.76,0,21.22,4.96,28.69,13.6l.41.48,7.8-7.56-.35-.42c-9.23-11.1-22.55-17.47-36.55-17.47-28.55,0-51.78,26.66-51.78,59.43s23.23,58.94,51.78,58.94c13.95,0,27.27-6.31,36.55-17.3l.35-.42-7.79-7.74-.42.48c-7.59,8.77-17.78,13.6-28.69,13.6-22.51,0-40.83-21.33-40.83-47.56s18.32-48.05,40.83-48.05"/>
        <polygon points="961.01 81.09 1003.13 22.52 989.54 22.52 952.41 74.09 952.41 22.52 941.46 22.52 941.46 136.95 952.4 136.81 952.4 87.22 988.19 136.95 1001.15 136.95 961.01 81.09"/>
        <path d="M1032.67,34.37c0,6.52-5.19,11.81-11.71,11.81s-11.68-5.29-11.68-11.81,5.15-11.84,11.68-11.84,11.71,5.32,11.71,11.84M1030.66,34.37c0-5.42-4.28-9.84-9.7-9.84s-9.67,4.42-9.67,9.84,4.25,9.77,9.67,9.77,9.7-4.35,9.7-9.77M1022.76,36.07l2.98,4.25h-2.41l-2.91-4.08h-1.2v4.08h-2.14v-11.61h4.48c2.58,0,3.78,1.74,3.78,3.68,0,2.07-.77,3.25-2.58,3.68M1019.22,30.72v3.61h2.24c1.27,0,1.81-.97,1.81-1.81s-.54-1.81-1.81-1.81h-2.24Z"/>
        <path d="M80.39,0C35.99,0,0,35.91,0,80.21,0,88.38,1.24,96.25,3.52,103.68c.17.56.35,1.11.53,1.67,0,0,9.21,34.25,47.4,49.7,10,4.05,19.54,5.53,28.18,5.53,23.79,0,40.74-11.24,41.46-11.24.02,0,.03,0,.02.02.84-.49,1.66-1,2.48-1.53,1.58-1.02,3.13-2.1,4.64-3.22,19.74-14.61,32.56-38,32.56-64.4C160.79,35.91,124.79,0,80.39,0M147.45,114.53c-2.64,5.11-5.88,9.92-9.63,14.31-3.73,4.37-7.97,8.32-12.59,11.74-.4.3-.79.58-1.18.86-.04-2.61-.36-5.16-.92-7.62-.21-1.17-1.1-3.71-2.22-6.62-.28-.74-.58-1.49-.88-2.26-1.5-3.8-3.18-7.78-4.13-9.99-2.34-5.43-7.32-15.83-10.73-22.88-.17-.35-.34-.7-.5-1.03-.32-.67-.63-1.3-.91-1.88-.28-.58-.55-1.12-.78-1.61-.24-.48-.45-.91-.62-1.28-.45-.92-.7-1.44-.7-1.44-.04-.08-.06-.16-.1-.23-.31-.54-.56-1.12-.72-1.74-.05-.21-.1-.42-.13-.64-.04-.23-.06-.47-.07-.7-.01-.23-.01-.46,0-.69.01-.23.03-.45.07-.68.03-.22.08-.44.13-.66.11-.43.26-.85.44-1.25.09-.2.2-.39.31-.58.22-.38.48-.73.78-1.06.44-.49.95-.92,1.52-1.28.38-.24.78-.44,1.21-.59.43-.16.88-.28,1.35-.35.08-.01.23-.03.42-.04.29-.02.7-.03,1.2-.04.33,0,.7-.01,1.1-.02,0,0,.01,0,.02,0,.36,0,.74,0,1.15-.01.81,0,1.72,0,2.67-.01,2.38,0,5.09,0,7.55.02.56,0,1.11,0,1.65.01.27,0,.53,0,.78,0,.51,0,1,0,1.46.01.23,0,.45,0,.66,0,.53,0,1.02.01,1.43.02.42,0,.77,0,1.05.01,1.59,0,3.2.04,4.83.03,1.62,0,3.25-.05,4.87-.19.86-.08,1.71-.19,2.55-.33,1.06-.17,2.12-.39,3.15-.7.87-.3,1.54-.69,2.05-1.13.5-.44.83-.94,1-1.46.06-.17.09-.35.11-.53.02-.18.02-.36,0-.54-.02-.28-.12-.57-.23-.85-.03-.07-.03-.15-.06-.23-.04-.1-.11-.19-.16-.29-.04-.08-.08-.16-.13-.23-.14-.21-.31-.42-.5-.63-.57-.61-1.35-1.16-2.32-1.59-1.81-.76-3.62-1.52-5.43-2.32-1.81-.8-3.61-1.62-5.38-2.5-.71-.35-1.41-.71-2.11-1.08-1.4-.74-2.78-1.51-4.12-2.33-1.08-.66-2.13-1.35-3.17-2.08-.35-.24-.7-.47-1.04-.73,0,0,0,0,0,0-4.42-3.27-7.85-6.39-11.06-10.94-.14-.19-.28-.38-.42-.57-.08-.1-.16-.2-.23-.31-.18-.24-.36-.48-.54-.71-.17-.22-.35-.43-.53-.64-.25-.3-.5-.59-.76-.88-.19-.21-.38-.43-.58-.64-.27-.29-.55-.58-.84-.86-.19-.18-.37-.37-.56-.55-.44-.42-.9-.83-1.36-1.23-.1-.08-.19-.16-.29-.24-.44-.37-.89-.73-1.34-1.08-.18-.13-.36-.26-.53-.39-.25-.18-.5-.37-.76-.55-.12-.08-.24-.16-.35-.24-.08-.05-.16-.11-.24-.16-.05-.03-.1-.07-.15-.1-.02-.01-.04-.03-.06-.04-.03-.02-.05-.04-.08-.05-.05-.04-.11-.07-.16-.1-.04-.03-.08-.05-.12-.08-1.22-.85-2.51-1.57-3.85-2.17-.66-.3-1.33-.57-2.01-.81-1.75-.69-3.57-1.25-5.43-1.65-2.23-.49-4.54-.76-6.88-.79-1.95-.03-3.94.11-5.93.42-17.28,2.71-29.6,17.64-29.54,34.61,0,1.76.15,3.53.43,5.32.44,2.81,1.21,5.48,2.25,8,.95,2.64,2.25,5.18,3.91,7.56,2.16,3.05,9.47,13.46,9.47,13.46.02.04.04.08.06.12.09.14.16.29.23.44.14.37.24.76.25,1.18.03.87-.26,1.72-.89,2.33-.31.3-.67.52-1.06.69-.01,0-.03.01-.04.02-.37.15-.77.25-1.16.3-.04,0-.07.02-.11.02-.36.04-.69-.01-1.04-.09-10.6-2.4-21.49-3.78-32.37-3.46-.01,0-.03,0-.04,0-1.26.04-2.51.13-3.75.25-.27.03-.54.05-.81.08-1.2.13-2.4.29-3.58.47-.16.03-.33.06-.49.08-1.13.19-2.26.39-3.38.61-.17.03-.33.06-.5.1-1.94.39-3.88.81-5.81,1.23-2.28-7.27-3.43-14.8-3.43-22.42,0-10.15,1.99-20,5.92-29.27,1.89-4.45,4.23-8.75,6.95-12.77,2.7-3.98,5.8-7.73,9.21-11.13,3.41-3.4,7.17-6.5,11.16-9.19,4.03-2.72,8.34-5.05,12.8-6.93,9.29-3.92,19.16-5.91,29.34-5.91s20.05,1.99,29.34,5.91c4.46,1.88,8.77,4.22,12.8,6.93,3.99,2.69,7.75,5.78,11.16,9.19,3.41,3.4,6.51,7.15,9.21,11.13,2.72,4.02,5.06,8.32,6.95,12.77,3.93,9.27,5.92,19.11,5.92,29.27,0,6.07-.73,12.11-2.17,17.95-1.39,5.67-3.46,11.17-6.15,16.37"/>
      </g>
    </g>
  </g>
</svg>