<?xml version="1.0" encoding="UTF-8"?>
<svg id="Layer_1" data-name="Layer 1" xmlns="http://www.w3.org/2000/svg" xmlns:xlink="http://www.w3.org/1999/xlink" viewBox="0 0 437.83 437.27">
  <defs>
    <style>
      .cls-1 {
        fill: url(#linear-gradient);
      }

      .cls-1, .cls-2 {
        stroke-width: 0px;
      }

      .cls-2 {
        fill: #000;
      }
    </style>
    <linearGradient id="linear-gradient" x1="293.47" y1="424.64" x2="143.98" y2="13.91" gradientUnits="userSpaceOnUse">
      <stop offset="0" stop-color="#9a73b8"/>
      <stop offset=".28" stop-color="#9c76b9"/>
      <stop offset=".54" stop-color="#a481bf"/>
      <stop offset=".79" stop-color="#b194c8"/>
      <stop offset="1" stop-color="#c2abd4"/>
    </linearGradient>
  </defs>
  <path class="cls-1" d="M340.38,37.43C171.74-74.59-43.94,82.28,7.83,277.02c62.46,214.55,361.94,213.37,422.7-1.72l.25-.94c23.93-87.98-14.65-186.8-90.39-236.92ZM382.16,206.98c-5.02,1.5-10.21,2.34-15.47,2.8-15.15,1.33-30.38,1.04-45.57.67-7.61-.18-15.21-.39-22.82-.43-6.52-.03-13.96-.89-20.1,1.75-3.52,1.51-6.47,4.25-8.38,7.58-4.96,8.68-1,16.64,2.89,24.6,10.12,20.73,20.42,41.95,29.97,63.17,4.83,10.74,9.52,21.55,13.98,32.45,6.8,16.62,13.48,32.33,14.13,50.57-32.13,21.14-70.54,33.49-111.8,33.49-89.61,0-165.85-58.1-193.18-138.59,13.48-2.88,27.05-5.41,41.2-5.83,27-.81,54.01,2.24,80.41,7.74,5.63,1.17,11.92,3.82,16.77-.91,1.71-1.66,2.49-3.97,2.41-6.33-.04-1.13-.31-2.19-.68-3.19-.76-1.66-1.86-3.07-2.9-4.56-1.76-2.51-3.52-5.01-5.28-7.51-2.26-3.22-4.53-6.44-6.79-9.66-2.22-3.15-4.44-6.31-6.66-9.46-1.61-2.28-3.21-4.56-4.83-6.83-4.5-6.46-8.02-13.36-10.61-20.52-2.83-6.82-4.92-14.08-6.11-21.7-.76-4.85-1.14-9.67-1.15-14.43-.17-46.02,33.26-86.54,80.12-93.88,5.41-.85,10.79-1.22,16.09-1.14,6.36.09,12.6.82,18.66,2.14,5.05,1.1,9.97,2.61,14.72,4.49,16.98,6.72,31.83,18.42,42.29,33.39,3.96,5.68,8,11.35,12.88,16.29,12.98,13.13,29.48,22.4,45.9,30.52,9.62,4.75,19.51,8.96,29.31,13.06,3.9,1.63,8.44,5.33,9.14,9.83.83,5.36-4.12,8.86-8.56,10.42Z"/>
  <path class="cls-2" d="M381.58,186.73c-9.8-4.1-19.7-8.31-29.31-13.06-16.42-8.12-32.92-17.39-45.9-30.52-4.88-4.94-8.92-10.61-12.88-16.29-10.45-14.98-25.3-26.67-42.29-33.39-4.75-1.88-9.67-3.39-14.72-4.49-6.06-1.32-12.31-2.05-18.66-2.14-5.3-.08-10.67.29-16.09,1.14-46.87,7.34-80.3,47.85-80.12,93.88.02,4.76.4,9.58,1.15,14.43,1.19,7.62,3.29,14.87,6.11,21.7,2.59,7.16,6.11,14.06,10.61,20.52,1.61,2.27,3.22,4.55,4.83,6.83,2.22,3.15,4.44,6.31,6.66,9.46,2.26,3.22,4.53,6.44,6.79,9.66,1.76,2.5,3.52,5.01,5.28,7.51,1.05,1.49,2.14,2.9,2.9,4.56.38,1,.64,2.06.68,3.19.08,2.36-.7,4.67-2.41,6.33-4.85,4.73-11.14,2.08-16.77.91-26.41-5.5-53.42-8.55-80.41-7.74-14.15.42-27.72,2.95-41.2,5.83,27.33,80.49,103.57,138.59,193.18,138.59,41.26,0,79.66-12.35,111.8-33.49-.65-18.23-7.33-33.94-14.13-50.57-4.46-10.9-9.14-21.71-13.98-32.45-9.55-21.22-19.85-42.45-29.97-63.17-3.89-7.96-7.85-15.92-2.89-24.6,1.9-3.33,4.86-6.06,8.38-7.58,6.14-2.64,13.57-1.78,20.1-1.75,7.61.04,15.21.25,22.82.43,15.19.37,30.42.66,45.57-.67,5.25-.46,10.44-1.3,15.47-2.8,4.44-1.56,9.39-5.06,8.56-10.42-.7-4.51-5.24-8.2-9.14-9.83Z"/>
</svg>